<?xml version="1.0" encoding="UTF-8" standalone="no"?>
<!DOCTYPE svg PUBLIC "-//W3C//DTD SVG 1.1//EN"
 "http://www.w3.org/Graphics/SVG/1.1/DTD/svg11.dtd">
<!-- Generated by graphviz version 2.28.0 (20110509.1545)
 -->
<!-- Title: _anonymous_0 Pages: 1 -->
<svg width="1192pt" height="638pt"
 viewBox="0.00 0.00 1192.00 638.00" xmlns="http://www.w3.org/2000/svg" xmlns:xlink="http://www.w3.org/1999/xlink">
<g id="graph1" class="graph" transform="scale(1 1) rotate(0) translate(4 634)">
<title>_anonymous_0</title>
<polygon fill="white" stroke="white" points="-4,5 -4,-634 1189,-634 1189,5 -4,5"/>
<!-- org_liveSense_misc_jsr303 -->
<g id="node1" class="node"><title>org_liveSense_misc_jsr303</title>
<polygon fill="yellow" stroke="black" points="442.367,-593 442.367,-629 615.633,-629 615.633,-593 442.367,-593"/>
<text text-anchor="middle" x="529" y="-617" font-family="Arial" font-size="8.00">liveSense :: Misc :: JSR 303 Bean Validation</text>
<polyline fill="none" stroke="black" points="442.367,-611.801 615.633,-611.801 "/>
<text text-anchor="middle" x="529" y="-599.301" font-family="Arial" font-size="8.00">org.liveSense.misc.jsr303(2&#45;SNAPSHOT)</text>
</g>
<!-- org_liveSense_misc_javax_persistence -->
<g id="node2" class="node"><title>org_liveSense_misc_javax_persistence</title>
<polygon fill="green" stroke="black" points="351.191,-519 351.191,-555 554.809,-555 554.809,-519 351.191,-519"/>
<text text-anchor="middle" x="453" y="-543" font-family="Arial" font-size="8.00">liveSense :: Extension :: javax.persistence</text>
<polyline fill="none" stroke="black" points="351.191,-537.801 554.809,-537.801 "/>
<text text-anchor="middle" x="453" y="-525.301" font-family="Arial" font-size="8.00">org.liveSense.misc.javax.persistence(2&#45;SNAPSHOT)</text>
</g>
<!-- org_liveSense_misc_jsr303&#45;&gt;org_liveSense_misc_javax_persistence -->
<g id="edge2" class="edge"><title>org_liveSense_misc_jsr303&#45;&gt;org_liveSense_misc_javax_persistence</title>
<path fill="none" stroke="yellow" d="M510.989,-592.937C501.311,-583.768 489.214,-572.308 478.577,-562.231"/>
<polygon fill="yellow" stroke="yellow" points="480.812,-559.527 471.145,-555.19 475.997,-564.608 480.812,-559.527"/>
</g>
<!-- slf4j_api -->
<g id="node3" class="node"><title>slf4j_api</title>
<polygon fill="green" stroke="black" points="572.877,-519 572.877,-555 639.123,-555 639.123,-519 572.877,-519"/>
<text text-anchor="middle" x="606" y="-543" font-family="Arial" font-size="8.00">slf4j&#45;api</text>
<polyline fill="none" stroke="black" points="572.877,-537.801 639.123,-537.801 "/>
<text text-anchor="middle" x="606" y="-525.301" font-family="Arial" font-size="8.00">slf4j.api(1.6.1)</text>
</g>
<!-- org_liveSense_misc_jsr303&#45;&gt;slf4j_api -->
<g id="edge4" class="edge"><title>org_liveSense_misc_jsr303&#45;&gt;slf4j_api</title>
<path fill="none" stroke="yellow" d="M547.248,-592.937C557.053,-583.768 569.309,-572.308 580.086,-562.231"/>
<polygon fill="yellow" stroke="yellow" points="582.702,-564.576 587.616,-555.19 577.921,-559.464 582.702,-564.576"/>
</g>
<!-- ch_qos_logback_classic -->
<g id="node4" class="node"><title>ch_qos_logback_classic</title>
<polygon fill="#3182bd" stroke="black" points="459.643,-445 459.643,-481 578.357,-481 578.357,-445 459.643,-445"/>
<text text-anchor="middle" x="519" y="-469" font-family="Arial" font-size="8.00">Logback Classic Module</text>
<polyline fill="none" stroke="black" points="459.643,-463.801 578.357,-463.801 "/>
<text text-anchor="middle" x="519" y="-451.301" font-family="Arial" font-size="8.00">ch.qos.logback.classic(1.0.3)</text>
</g>
<!-- slf4j_api&#45;&gt;ch_qos_logback_classic -->
<g id="edge6" class="edge"><title>slf4j_api&#45;&gt;ch_qos_logback_classic</title>
<path fill="none" stroke="green" d="M579.542,-518.937C567.374,-509.679 553.178,-498.086 541.524,-487.938"/>
<polygon fill="green" stroke="green" points="543.721,-485.209 533.918,-481.19 539.075,-490.445 543.721,-485.209"/>
</g>
<!-- ch_qos_logback_classic&#45;&gt;slf4j_api -->
<g id="edge12" class="edge"><title>ch_qos_logback_classic&#45;&gt;slf4j_api</title>
<path fill="none" stroke="#3182bd" d="M545.625,-481.19C557.812,-490.469 572.005,-502.067 583.636,-512.201"/>
<polygon fill="#3182bd" stroke="#3182bd" points="581.421,-514.915 591.222,-518.937 586.068,-509.68 581.421,-514.915"/>
</g>
<!-- ch_qos_logback_core -->
<g id="node5" class="node"><title>ch_qos_logback_core</title>
<polygon fill="#9ecae1" stroke="black" points="140.863,-371 140.863,-407 251.137,-407 251.137,-371 140.863,-371"/>
<text text-anchor="middle" x="196" y="-395" font-family="Arial" font-size="8.00">Logback Core Module</text>
<polyline fill="none" stroke="black" points="140.863,-389.801 251.137,-389.801 "/>
<text text-anchor="middle" x="196" y="-377.301" font-family="Arial" font-size="8.00">ch.qos.logback.core(1.0.3)</text>
</g>
<!-- ch_qos_logback_classic&#45;&gt;ch_qos_logback_core -->
<g id="edge8" class="edge"><title>ch_qos_logback_classic&#45;&gt;ch_qos_logback_core</title>
<path fill="none" stroke="#3182bd" d="M459.38,-448.71C403.12,-436.169 318.979,-417.413 261.016,-404.493"/>
<polygon fill="#3182bd" stroke="#3182bd" points="261.751,-401.071 251.229,-402.311 260.228,-407.903 261.751,-401.071"/>
</g>
<!-- org_apache_felix_http_jetty -->
<g id="node6" class="node"><title>org_apache_felix_http_jetty</title>
<polygon fill="#9ecae1" stroke="black" points="469.969,-149 469.969,-185 598.031,-185 598.031,-149 469.969,-149"/>
<text text-anchor="middle" x="534" y="-173" font-family="Arial" font-size="8.00">Apache Felix Http Jetty</text>
<polyline fill="none" stroke="black" points="469.969,-167.801 598.031,-167.801 "/>
<text text-anchor="middle" x="534" y="-155.301" font-family="Arial" font-size="8.00">org.apache.felix.http.jetty(2.2.0)</text>
</g>
<!-- ch_qos_logback_classic&#45;&gt;org_apache_felix_http_jetty -->
<g id="edge10" class="edge"><title>ch_qos_logback_classic&#45;&gt;org_apache_felix_http_jetty</title>
<path fill="none" stroke="#3182bd" d="M459.573,-459.678C364.914,-455.002 185.145,-441.84 132,-408 58.958,-361.49 16.4498,-286.701 74,-222 99.1451,-193.73 335.95,-177.841 459.603,-171.407"/>
<polygon fill="#3182bd" stroke="#3182bd" points="459.948,-174.894 469.756,-170.887 459.59,-167.904 459.948,-174.894"/>
</g>
<!-- groovy_all -->
<g id="node7" class="node"><title>groovy_all</title>
<polygon fill="#9ecae1" stroke="black" points="484.1,-371 484.1,-407 557.9,-407 557.9,-371 484.1,-371"/>
<text text-anchor="middle" x="521" y="-395" font-family="Arial" font-size="8.00">Groovy Runtime</text>
<polyline fill="none" stroke="black" points="484.1,-389.801 557.9,-389.801 "/>
<text text-anchor="middle" x="521" y="-377.301" font-family="Arial" font-size="8.00">groovy&#45;all(1.8.2)</text>
</g>
<!-- ch_qos_logback_classic&#45;&gt;groovy_all -->
<g id="edge14" class="edge"><title>ch_qos_logback_classic&#45;&gt;groovy_all</title>
<path fill="none" stroke="#3182bd" d="M519.474,-444.937C519.7,-436.807 519.976,-426.876 520.23,-417.705"/>
<polygon fill="#3182bd" stroke="#3182bd" points="523.736,-417.534 520.516,-407.441 516.739,-417.34 523.736,-417.534"/>
</g>
<!-- ch_qos_logback_core&#45;&gt;org_apache_felix_http_jetty -->
<g id="edge18" class="edge"><title>ch_qos_logback_core&#45;&gt;org_apache_felix_http_jetty</title>
<path fill="none" stroke="#9ecae1" d="M155.766,-370.974C139.554,-362.185 122.099,-349.919 111,-334 82.2405,-292.753 61.6855,-259.663 95,-222 118.698,-195.208 340.443,-178.811 459.4,-171.869"/>
<polygon fill="#9ecae1" stroke="#9ecae1" points="459.75,-175.355 469.532,-171.287 459.347,-168.367 459.75,-175.355"/>
</g>
<!-- org_glassfish_javax_mail -->
<g id="node8" class="node"><title>org_glassfish_javax_mail</title>
<polygon fill="#deebf7" stroke="black" points="119.752,-297 119.752,-333 272.248,-333 272.248,-297 119.752,-297"/>
<text text-anchor="middle" x="196" y="-321" font-family="Arial" font-size="8.00">javax.mail API v.1.4</text>
<polyline fill="none" stroke="black" points="119.752,-315.801 272.248,-315.801 "/>
<text text-anchor="middle" x="196" y="-303.301" font-family="Arial" font-size="8.00">org.glassfish.javax.mail(3.0.0.Preview)</text>
</g>
<!-- ch_qos_logback_core&#45;&gt;org_glassfish_javax_mail -->
<g id="edge16" class="edge"><title>ch_qos_logback_core&#45;&gt;org_glassfish_javax_mail</title>
<path fill="none" stroke="#9ecae1" d="M196,-370.937C196,-362.807 196,-352.876 196,-343.705"/>
<polygon fill="#9ecae1" stroke="#9ecae1" points="199.5,-343.441 196,-333.441 192.5,-343.441 199.5,-343.441"/>
</g>
<!-- org_apache_felix_http_jetty&#45;&gt;slf4j_api -->
<g id="edge28" class="edge"><title>org_apache_felix_http_jetty&#45;&gt;slf4j_api</title>
<path fill="none" stroke="#deebf7" d="M469.766,-167.812C353.753,-168.645 115.075,-176.083 48,-222 9.94327,-248.052 0,-267.88 0,-314 0,-390 0,-390 0,-390 0,-515.297 420.391,-480.617 562.653,-518.438"/>
<polygon fill="#deebf7" stroke="#deebf7" points="561.825,-521.843 572.406,-521.29 563.79,-515.124 561.825,-521.843"/>
</g>
<!-- org_apache_sling_commons_logservice -->
<g id="node11" class="node"><title>org_apache_sling_commons_logservice</title>
<polygon fill="#bdbdbd" stroke="black" points="744.955,-1 744.955,-37 929.045,-37 929.045,-1 744.955,-1"/>
<text text-anchor="middle" x="837" y="-25" font-family="Arial" font-size="8.00">Apache Sling OSGi LogService Implementation</text>
<polyline fill="none" stroke="black" points="744.955,-19.8008 929.045,-19.8008 "/>
<text text-anchor="middle" x="837" y="-7.30078" font-family="Arial" font-size="8.00">org.apache.sling.commons.logservice(1.0.0)</text>
</g>
<!-- org_apache_felix_http_jetty&#45;&gt;org_apache_sling_commons_logservice -->
<g id="edge26" class="edge"><title>org_apache_felix_http_jetty&#45;&gt;org_apache_sling_commons_logservice</title>
<path fill="none" stroke="#deebf7" d="M539.293,-148.82C546.692,-127.792 562.2,-92.6845 588,-74 630.226,-43.4191 686.353,-29.551 734.629,-23.4886"/>
<polygon fill="#deebf7" stroke="#deebf7" points="735.272,-26.9375 744.803,-22.3102 734.467,-19.984 735.272,-26.9375"/>
</g>
<!-- org_apache_felix_configadmin -->
<g id="node12" class="node"><title>org_apache_felix_configadmin</title>
<polygon fill="#bdbdbd" stroke="black" points="597.295,-75 597.295,-111 762.705,-111 762.705,-75 597.295,-75"/>
<text text-anchor="middle" x="680" y="-99" font-family="Arial" font-size="8.00">Apache Felix Configuration Admin Service</text>
<polyline fill="none" stroke="black" points="597.295,-93.8008 762.705,-93.8008 "/>
<text text-anchor="middle" x="680" y="-81.3008" font-family="Arial" font-size="8.00">org.apache.felix.configadmin(1.2.8)</text>
</g>
<!-- org_apache_felix_http_jetty&#45;&gt;org_apache_felix_configadmin -->
<g id="edge30" class="edge"><title>org_apache_felix_http_jetty&#45;&gt;org_apache_felix_configadmin</title>
<path fill="none" stroke="#deebf7" d="M568.6,-148.937C588.891,-138.931 614.714,-126.196 636.389,-115.507"/>
<polygon fill="#deebf7" stroke="#deebf7" points="637.975,-118.627 645.396,-111.065 634.879,-112.349 637.975,-118.627"/>
</g>
<!-- groovy_all&#45;&gt;org_apache_felix_http_jetty -->
<g id="edge22" class="edge"><title>groovy_all&#45;&gt;org_apache_felix_http_jetty</title>
<path fill="none" stroke="#9ecae1" d="M522.02,-370.737C524.27,-332.664 529.673,-241.231 532.387,-195.301"/>
<polygon fill="#9ecae1" stroke="#9ecae1" points="535.889,-195.372 532.985,-185.183 528.901,-194.959 535.889,-195.372"/>
</g>
<!-- org_apache_servicemix_bundles_xstream -->
<g id="node9" class="node"><title>org_apache_servicemix_bundles_xstream</title>
<polygon fill="#deebf7" stroke="black" points="306.627,-297 306.627,-333 493.373,-333 493.373,-297 306.627,-297"/>
<text text-anchor="middle" x="400" y="-321" font-family="Arial" font-size="8.00">Apache ServiceMix :: Bundles :: xstream</text>
<polyline fill="none" stroke="black" points="306.627,-315.801 493.373,-315.801 "/>
<text text-anchor="middle" x="400" y="-303.301" font-family="Arial" font-size="8.00">org.apache.servicemix.bundles.xstream(1.4.1.1)</text>
</g>
<!-- groovy_all&#45;&gt;org_apache_servicemix_bundles_xstream -->
<g id="edge20" class="edge"><title>groovy_all&#45;&gt;org_apache_servicemix_bundles_xstream</title>
<path fill="none" stroke="#9ecae1" d="M492.325,-370.937C476.018,-361.234 455.4,-348.966 437.787,-338.485"/>
<polygon fill="#9ecae1" stroke="#9ecae1" points="439.272,-335.296 428.889,-333.19 435.693,-341.311 439.272,-335.296"/>
</g>
<!-- org_apache_sling_scripting_jsp -->
<g id="node10" class="node"><title>org_apache_sling_scripting_jsp</title>
<polygon fill="#deebf7" stroke="black" points="739.631,-297 739.631,-333 886.369,-333 886.369,-297 739.631,-297"/>
<text text-anchor="middle" x="813" y="-321" font-family="Arial" font-size="8.00">Apache Sling Scripting JSP Support</text>
<polyline fill="none" stroke="black" points="739.631,-315.801 886.369,-315.801 "/>
<text text-anchor="middle" x="813" y="-303.301" font-family="Arial" font-size="8.00">org.apache.sling.scripting.jsp(2.0.24)</text>
</g>
<!-- groovy_all&#45;&gt;org_apache_sling_scripting_jsp -->
<g id="edge24" class="edge"><title>groovy_all&#45;&gt;org_apache_sling_scripting_jsp</title>
<path fill="none" stroke="#9ecae1" d="M557.982,-378.881C602.083,-368.007 677.018,-349.53 734.28,-335.41"/>
<polygon fill="#9ecae1" stroke="#9ecae1" points="735.16,-338.798 744.031,-333.006 733.484,-332.002 735.16,-338.798"/>
</g>
<!-- org_apache_servicemix_bundles_xpp3 -->
<g id="node13" class="node"><title>org_apache_servicemix_bundles_xpp3</title>
<polygon fill="#bdbdbd" stroke="black" points="305.729,-223 305.729,-259 494.271,-259 494.271,-223 305.729,-223"/>
<text text-anchor="middle" x="400" y="-247" font-family="Arial" font-size="8.00">Apache ServiceMix :: Bundles :: xpp3</text>
<polyline fill="none" stroke="black" points="305.729,-241.801 494.271,-241.801 "/>
<text text-anchor="middle" x="400" y="-229.301" font-family="Arial" font-size="8.00">org.apache.servicemix.bundles.xpp3(1.1.0.4c_5)</text>
</g>
<!-- org_apache_servicemix_bundles_xstream&#45;&gt;org_apache_servicemix_bundles_xpp3 -->
<g id="edge32" class="edge"><title>org_apache_servicemix_bundles_xstream&#45;&gt;org_apache_servicemix_bundles_xpp3</title>
<path fill="none" stroke="#deebf7" d="M400,-296.937C400,-288.807 400,-278.876 400,-269.705"/>
<polygon fill="#deebf7" stroke="#deebf7" points="403.5,-269.441 400,-259.441 396.5,-269.441 403.5,-269.441"/>
</g>
<!-- org_apache_servicemix_bundles_cglib -->
<g id="node14" class="node"><title>org_apache_servicemix_bundles_cglib</title>
<polygon fill="#bdbdbd" stroke="black" points="104.176,-223 104.176,-259 287.824,-259 287.824,-223 104.176,-223"/>
<text text-anchor="middle" x="196" y="-247" font-family="Arial" font-size="8.00">Apache ServiceMix Bundles: cglib&#45;2.1_3</text>
<polyline fill="none" stroke="black" points="104.176,-241.801 287.824,-241.801 "/>
<text text-anchor="middle" x="196" y="-229.301" font-family="Arial" font-size="8.00">org.apache.servicemix.bundles.cglib(2.1.0.3_4)</text>
</g>
<!-- org_apache_servicemix_bundles_xstream&#45;&gt;org_apache_servicemix_bundles_cglib -->
<g id="edge34" class="edge"><title>org_apache_servicemix_bundles_xstream&#45;&gt;org_apache_servicemix_bundles_cglib</title>
<path fill="none" stroke="#deebf7" d="M351.655,-296.937C322.418,-286.618 284.958,-273.397 254.114,-262.511"/>
<polygon fill="#deebf7" stroke="#deebf7" points="254.946,-259.093 244.351,-259.065 252.616,-265.694 254.946,-259.093"/>
</g>
<!-- org_apache_sling_scripting_jsp&#45;&gt;slf4j_api -->
<g id="edge46" class="edge"><title>org_apache_sling_scripting_jsp&#45;&gt;slf4j_api</title>
<path fill="none" stroke="#deebf7" d="M796.833,-333.183C760.325,-371.983 671.402,-466.49 629.098,-511.452"/>
<polygon fill="#deebf7" stroke="#deebf7" points="626.547,-509.056 622.243,-518.737 631.645,-513.852 626.547,-509.056"/>
</g>
<!-- org_apache_sling_scripting_jsp&#45;&gt;org_apache_felix_http_jetty -->
<g id="edge42" class="edge"><title>org_apache_sling_scripting_jsp&#45;&gt;org_apache_felix_http_jetty</title>
<path fill="none" stroke="#deebf7" d="M831.229,-296.844C850.008,-277.105 874.049,-244.521 855,-222 839.208,-203.33 698.041,-185.222 608.247,-175.45"/>
<polygon fill="#deebf7" stroke="#deebf7" points="608.421,-171.949 598.104,-174.358 607.672,-178.908 608.421,-171.949"/>
</g>
<!-- org_apache_felix_scr -->
<g id="node15" class="node"><title>org_apache_felix_scr</title>
<polygon fill="#bdbdbd" stroke="black" points="881.309,-149 881.309,-185 1018.69,-185 1018.69,-149 881.309,-149"/>
<text text-anchor="middle" x="950" y="-173" font-family="Arial" font-size="8.00">Apache Felix Declarative Services</text>
<polyline fill="none" stroke="black" points="881.309,-167.801 1018.69,-167.801 "/>
<text text-anchor="middle" x="950" y="-155.301" font-family="Arial" font-size="8.00">org.apache.felix.scr(1.6.0)</text>
</g>
<!-- org_apache_sling_scripting_jsp&#45;&gt;org_apache_felix_scr -->
<g id="edge36" class="edge"><title>org_apache_sling_scripting_jsp&#45;&gt;org_apache_felix_scr</title>
<path fill="none" stroke="#deebf7" d="M853.269,-296.881C870.834,-287.887 890.648,-275.485 905,-260 922.395,-241.233 934.453,-214.492 941.678,-194.673"/>
<polygon fill="#deebf7" stroke="#deebf7" points="945.056,-195.613 945.018,-185.018 938.441,-193.324 945.056,-195.613"/>
</g>
<!-- org_apache_sling_api -->
<g id="node16" class="node"><title>org_apache_sling_api</title>
<polygon fill="#bdbdbd" stroke="black" points="549.637,-223 549.637,-259 660.363,-259 660.363,-223 549.637,-223"/>
<text text-anchor="middle" x="605" y="-247" font-family="Arial" font-size="8.00">Apache Sling API</text>
<polyline fill="none" stroke="black" points="549.637,-241.801 660.363,-241.801 "/>
<text text-anchor="middle" x="605" y="-229.301" font-family="Arial" font-size="8.00">org.apache.sling.api(2.2.4)</text>
</g>
<!-- org_apache_sling_scripting_jsp&#45;&gt;org_apache_sling_api -->
<g id="edge38" class="edge"><title>org_apache_sling_scripting_jsp&#45;&gt;org_apache_sling_api</title>
<path fill="none" stroke="#deebf7" d="M763.707,-296.937C733.767,-286.573 695.372,-273.283 663.846,-262.37"/>
<polygon fill="#deebf7" stroke="#deebf7" points="664.894,-259.029 654.299,-259.065 662.604,-265.644 664.894,-259.029"/>
</g>
<!-- org_apache_sling_commons_classloader -->
<g id="node17" class="node"><title>org_apache_sling_commons_classloader</title>
<polygon fill="#bdbdbd" stroke="black" points="978.293,-223 978.293,-259 1155.71,-259 1155.71,-223 978.293,-223"/>
<text text-anchor="middle" x="1067" y="-247" font-family="Arial" font-size="8.00">Apache Sling Dynamic Class Loader Support</text>
<polyline fill="none" stroke="black" points="978.293,-241.801 1155.71,-241.801 "/>
<text text-anchor="middle" x="1067" y="-229.301" font-family="Arial" font-size="8.00">org.apache.sling.commons.classloader(1.3.0)</text>
</g>
<!-- org_apache_sling_scripting_jsp&#45;&gt;org_apache_sling_commons_classloader -->
<g id="edge40" class="edge"><title>org_apache_sling_scripting_jsp&#45;&gt;org_apache_sling_commons_classloader</title>
<path fill="none" stroke="#deebf7" d="M873.194,-296.937C910.386,-286.395 958.262,-272.823 997.124,-261.807"/>
<polygon fill="#deebf7" stroke="#deebf7" points="998.132,-265.16 1006.8,-259.065 996.223,-258.425 998.132,-265.16"/>
</g>
<!-- org_apache_sling_scripting_api -->
<g id="node18" class="node"><title>org_apache_sling_scripting_api</title>
<polygon fill="#bdbdbd" stroke="black" points="677.957,-223 677.957,-259 846.043,-259 846.043,-223 677.957,-223"/>
<text text-anchor="middle" x="762" y="-247" font-family="Arial" font-size="8.00">Apache Sling Scripting Implementation API</text>
<polyline fill="none" stroke="black" points="677.957,-241.801 846.043,-241.801 "/>
<text text-anchor="middle" x="762" y="-229.301" font-family="Arial" font-size="8.00">org.apache.sling.scripting.api(2.1.4)</text>
</g>
<!-- org_apache_sling_scripting_jsp&#45;&gt;org_apache_sling_scripting_api -->
<g id="edge44" class="edge"><title>org_apache_sling_scripting_jsp&#45;&gt;org_apache_sling_scripting_api</title>
<path fill="none" stroke="#deebf7" d="M800.914,-296.937C794.717,-288.189 787.043,-277.354 780.151,-267.626"/>
<polygon fill="#deebf7" stroke="#deebf7" points="782.99,-265.578 774.354,-259.441 777.278,-269.624 782.99,-265.578"/>
</g>
<!-- org_apache_felix_eventadmin -->
<g id="node19" class="node"><title>org_apache_felix_eventadmin</title>
<polygon fill="#bdbdbd" stroke="black" points="719.184,-149 719.184,-185 862.816,-185 862.816,-149 719.184,-149"/>
<text text-anchor="middle" x="791" y="-173" font-family="Arial" font-size="8.00">Apache Felix EventAdmin</text>
<polyline fill="none" stroke="black" points="719.184,-167.801 862.816,-167.801 "/>
<text text-anchor="middle" x="791" y="-155.301" font-family="Arial" font-size="8.00">org.apache.felix.eventadmin(1.2.14)</text>
</g>
<!-- org_apache_sling_scripting_jsp&#45;&gt;org_apache_felix_eventadmin -->
<g id="edge48" class="edge"><title>org_apache_sling_scripting_jsp&#45;&gt;org_apache_felix_eventadmin</title>
<path fill="none" stroke="#deebf7" d="M850.112,-296.909C864.702,-288.109 879.881,-275.851 888,-260 895.7,-244.968 896.558,-236.56 888,-222 879.948,-208.302 867.022,-197.826 853.197,-189.918"/>
<polygon fill="#deebf7" stroke="#deebf7" points="854.503,-186.649 844.024,-185.083 851.239,-192.842 854.503,-186.649"/>
</g>
<!-- org_apache_sling_commons_logservice&#45;&gt;slf4j_api -->
<g id="edge50" class="edge"><title>org_apache_sling_commons_logservice&#45;&gt;slf4j_api</title>
<path fill="none" stroke="#bdbdbd" d="M929.079,-20.7979C1031.88,-27.1306 1184,-55.2177 1184,-166 1184,-390 1184,-390 1184,-390 1184,-500.217 783.931,-528.097 649.478,-534.354"/>
<polygon fill="#bdbdbd" stroke="#bdbdbd" points="648.985,-530.873 639.152,-534.816 649.298,-537.866 648.985,-530.873"/>
</g>
<!-- org_apache_felix_configadmin&#45;&gt;org_apache_sling_commons_logservice -->
<g id="edge52" class="edge"><title>org_apache_felix_configadmin&#45;&gt;org_apache_sling_commons_logservice</title>
<path fill="none" stroke="#bdbdbd" d="M717.207,-74.937C739.124,-64.886 767.044,-52.0819 790.415,-41.3638"/>
<polygon fill="#bdbdbd" stroke="#bdbdbd" points="792.158,-44.4151 799.789,-37.0651 789.24,-38.0523 792.158,-44.4151"/>
</g>
<!-- org_apache_felix_scr&#45;&gt;org_apache_sling_commons_logservice -->
<g id="edge56" class="edge"><title>org_apache_felix_scr&#45;&gt;org_apache_sling_commons_logservice</title>
<path fill="none" stroke="#bdbdbd" d="M957.383,-148.871C964.633,-129.156 972.66,-96.5957 958,-74 948.685,-59.6424 934.565,-49.0692 919.219,-41.2933"/>
<polygon fill="#bdbdbd" stroke="#bdbdbd" points="920.611,-38.081 910.069,-37.0308 917.655,-44.4263 920.611,-38.081"/>
</g>
<!-- org_apache_felix_scr&#45;&gt;org_apache_felix_configadmin -->
<g id="edge58" class="edge"><title>org_apache_felix_scr&#45;&gt;org_apache_felix_configadmin</title>
<path fill="none" stroke="#bdbdbd" d="M886.014,-148.937C846.312,-138.35 795.156,-124.708 753.753,-113.667"/>
<polygon fill="#bdbdbd" stroke="#bdbdbd" points="754.558,-110.26 743.994,-111.065 752.755,-117.024 754.558,-110.26"/>
</g>
<!-- org_apache_felix_metatype -->
<g id="node20" class="node"><title>org_apache_felix_metatype</title>
<polygon fill="#bdbdbd" stroke="black" points="818.635,-75 818.635,-111 949.365,-111 949.365,-75 818.635,-75"/>
<text text-anchor="middle" x="884" y="-99" font-family="Arial" font-size="8.00">Apache Felix Metatype Service</text>
<polyline fill="none" stroke="black" points="818.635,-93.8008 949.365,-93.8008 "/>
<text text-anchor="middle" x="884" y="-81.3008" font-family="Arial" font-size="8.00">org.apache.felix.metatype(1.0.4)</text>
</g>
<!-- org_apache_felix_scr&#45;&gt;org_apache_felix_metatype -->
<g id="edge54" class="edge"><title>org_apache_felix_scr&#45;&gt;org_apache_felix_metatype</title>
<path fill="none" stroke="#bdbdbd" d="M934.359,-148.937C926.178,-140.012 916.006,-128.916 906.951,-119.037"/>
<polygon fill="#bdbdbd" stroke="#bdbdbd" points="909.325,-116.447 899.987,-111.441 904.165,-121.177 909.325,-116.447"/>
</g>
<!-- org_apache_sling_api&#45;&gt;slf4j_api -->
<g id="edge62" class="edge"><title>org_apache_sling_api&#45;&gt;slf4j_api</title>
<path fill="none" stroke="#bdbdbd" d="M605.058,-259.125C605.225,-308.101 605.704,-449.058 605.907,-508.761"/>
<polygon fill="#bdbdbd" stroke="#bdbdbd" points="602.408,-508.935 605.942,-518.923 609.408,-508.911 602.408,-508.935"/>
</g>
<!-- org_apache_sling_api&#45;&gt;org_apache_felix_http_jetty -->
<g id="edge60" class="edge"><title>org_apache_sling_api&#45;&gt;org_apache_felix_http_jetty</title>
<path fill="none" stroke="#bdbdbd" d="M588.174,-222.937C579.286,-213.924 568.214,-202.696 558.401,-192.744"/>
<polygon fill="#bdbdbd" stroke="#bdbdbd" points="560.712,-190.104 551.198,-185.441 555.728,-195.019 560.712,-190.104"/>
</g>
<!-- org_apache_sling_commons_classloader&#45;&gt;slf4j_api -->
<g id="edge64" class="edge"><title>org_apache_sling_commons_classloader&#45;&gt;slf4j_api</title>
<path fill="none" stroke="#bdbdbd" d="M1040.15,-259.125C961.28,-309.422 730.301,-456.728 641.421,-513.411"/>
<polygon fill="#bdbdbd" stroke="#bdbdbd" points="639.327,-510.594 632.778,-518.923 643.091,-516.496 639.327,-510.594"/>
</g>
<!-- org_apache_felix_eventadmin&#45;&gt;org_apache_sling_commons_logservice -->
<g id="edge68" class="edge"><title>org_apache_felix_eventadmin&#45;&gt;org_apache_sling_commons_logservice</title>
<path fill="none" stroke="#bdbdbd" d="M793.204,-148.686C795.906,-129.921 801.24,-99.2722 810,-74 813.277,-64.5452 817.865,-54.6323 822.33,-45.918"/>
<polygon fill="#bdbdbd" stroke="#bdbdbd" points="825.461,-47.4843 827.059,-37.0107 819.279,-44.2016 825.461,-47.4843"/>
</g>
<!-- org_apache_felix_eventadmin&#45;&gt;org_apache_felix_configadmin -->
<g id="edge70" class="edge"><title>org_apache_felix_eventadmin&#45;&gt;org_apache_felix_configadmin</title>
<path fill="none" stroke="#bdbdbd" d="M764.695,-148.937C749.873,-139.323 731.169,-127.19 715.109,-116.774"/>
<polygon fill="#bdbdbd" stroke="#bdbdbd" points="716.796,-113.696 706.501,-111.19 712.986,-119.568 716.796,-113.696"/>
</g>
<!-- org_apache_felix_eventadmin&#45;&gt;org_apache_felix_metatype -->
<g id="edge66" class="edge"><title>org_apache_felix_eventadmin&#45;&gt;org_apache_felix_metatype</title>
<path fill="none" stroke="#bdbdbd" d="M813.04,-148.937C825.228,-139.501 840.55,-127.639 853.834,-117.354"/>
<polygon fill="#bdbdbd" stroke="#bdbdbd" points="856.032,-120.079 861.796,-111.19 851.746,-114.544 856.032,-120.079"/>
</g>
<!-- org_apache_felix_metatype&#45;&gt;org_apache_sling_commons_logservice -->
<g id="edge72" class="edge"><title>org_apache_felix_metatype&#45;&gt;org_apache_sling_commons_logservice</title>
<path fill="none" stroke="#bdbdbd" d="M872.862,-74.937C867.209,-66.277 860.221,-55.5731 853.92,-45.9207"/>
<polygon fill="#bdbdbd" stroke="#bdbdbd" points="856.782,-43.9013 848.385,-37.4407 850.92,-47.7277 856.782,-43.9013"/>
</g>
</g>
</svg>
